<svg id="Layer_1" data-name="Layer 1" xmlns="http://www.w3.org/2000/svg" viewBox="0 0 82 82"><title>Artboard 1</title><path d="M67.49,26.25a3,3,0,1,0-4.21,4.22L74.11,41.3,63.28,52.13a2.89,2.89,0,0,0,0,4.21,2.91,2.91,0,0,0,4.21,0L80.43,43.4a2.91,2.91,0,0,0,0-4.21Z"/><path d="M52.05,6a3,3,0,0,0-3.71,2.1L29.88,72.89A3,3,0,0,0,32,76.6a2.2,2.2,0,0,0,.8.1,3.1,3.1,0,0,0,2.91-2.21L54.05,9.71A2.9,2.9,0,0,0,52.05,6Z"/><path d="M18.75,26.25a2.91,2.91,0,0,0-4.21,0L1.6,39.19a2.91,2.91,0,0,0,0,4.21L14.54,56.34a2.91,2.91,0,0,0,4.21,0,2.91,2.91,0,0,0,0-4.21L7.92,41.3,18.75,30.47A2.92,2.92,0,0,0,18.75,26.25Z"/></svg>