<svg id="Layer_1" data-name="Layer 1" xmlns="http://www.w3.org/2000/svg" viewBox="0 0 82 82"><title>Artboard 1</title><path d="M41,2.07A29.63,29.63,0,0,0,11.4,31.52h0a10.86,10.86,0,0,0,0,21.72h0V66.63A10.25,10.25,0,0,0,21.63,76.87H35.16a6.3,6.3,0,1,0,7.08-8.54A23.37,23.37,0,0,0,62.82,53.25H70.6a10.86,10.86,0,0,0,0-21.72h0A29.63,29.63,0,0,0,41,2.07Zm0,4.72A24.92,24.92,0,0,1,65.88,31.52H63.77A19.73,19.73,0,0,0,44.62,16.4H37.38A19.71,19.71,0,0,0,18.23,31.52H16.12A24.91,24.91,0,0,1,41,6.79ZM37.38,21.12h7.24a15,15,0,0,1,15,15v9a18.58,18.58,0,0,1-37.16,0v-9A15,15,0,0,1,37.38,21.12ZM16.12,36.24h1.57V48.52H16.12Zm48.18,0h1.58V48.52H64.3V36.24Zm-52.91,0V48.52a6.14,6.14,0,0,1,0-12.28Zm59.21,0a6.14,6.14,0,0,1,0,12.28Zm-21.7,14a11.19,11.19,0,0,1-15.81,0l-3.34,3.34a15.9,15.9,0,0,0,22.49,0Zm-32.78,3h3.06A23.35,23.35,0,0,0,39.75,68.33a6.33,6.33,0,0,0-4.59,3.81H21.63a5.51,5.51,0,0,1-5.51-5.51ZM41,72.93a1.58,1.58,0,0,1,0,3.15,1.55,1.55,0,0,1-1.1-.45V73.38A1.55,1.55,0,0,1,41,72.93Z"/></svg>