<svg id="Layer_1" data-name="Layer 1" xmlns="http://www.w3.org/2000/svg" viewBox="0 0 82 82"><title>Artboard 1</title><path d="M19.47,50.24a1.35,1.35,0,0,0-1.35,1.36v6.76a1.35,1.35,0,0,0,2.7,0V51.6A1.35,1.35,0,0,0,19.47,50.24Z"/><path d="M80.34,15.07H76.28V1.55A1.35,1.35,0,0,0,74.93.19H66.82a1.36,1.36,0,0,0-1.36,1.36V15.07H1.89A1.36,1.36,0,0,0,.53,16.43V65.12a1.36,1.36,0,0,0,1.36,1.36H8.65v4.06a10.82,10.82,0,0,0,21.64,0V66.48H80.34a1.35,1.35,0,0,0,1.35-1.36V16.43A1.35,1.35,0,0,0,80.34,15.07ZM73.58,35.36H68.17v-27h5.41Zm-.7,2.71-2,4.68-2-4.68ZM68.17,2.9h5.41V5.61H68.17ZM8.09,17.78,3.24,22.63V17.78ZM10,19.69v4.85H5.15ZM27.59,70.54a8.12,8.12,0,0,1-16.24,0V54.3a8.12,8.12,0,0,1,16.24,0ZM79,63.77H30.29V54.3a10.82,10.82,0,0,0-21.64,0v9.47H3.24V27.25h8.11a1.36,1.36,0,0,0,1.36-1.35V17.78H65.46V36.72s0,0,0,.05a1.46,1.46,0,0,0,.1.46v0h0l4.05,9.47a1.36,1.36,0,0,0,2.49,0l4.06-9.47h0v0a1.45,1.45,0,0,0,.09-.46s0,0,0-.05V17.78H79Z"/><path d="M74.93,58.36h-2.7a1.36,1.36,0,1,0,0,2.71h2.7a1.36,1.36,0,0,0,0-2.71Z"/><path d="M66.82,58.36H64.11a1.36,1.36,0,0,0,0,2.71h2.71a1.36,1.36,0,0,0,0-2.71Z"/><path d="M55.69,25a1.36,1.36,0,0,0-1.91-.19l-14,11.44L27.14,24.89a1.37,1.37,0,0,0-1.68-.11L7.88,37a1.35,1.35,0,1,0,1.49,2.26l.05,0,16.7-11.56L38.86,39.08a1.35,1.35,0,0,0,1.75,0L55.49,26.94a1.35,1.35,0,0,0,.2-1.9Z"/><path d="M51.73,42.76a1.42,1.42,0,0,0-2-.34,1.57,1.57,0,0,0-.34.34L42.67,53.59a1.34,1.34,0,0,0,.43,1.86,1.29,1.29,0,0,0,.72.21H57.35A1.36,1.36,0,0,0,58.7,54.3a1.28,1.28,0,0,0-.21-.71ZM46.25,53,50.58,46,54.91,53Z"/></svg>