<svg id="Layer_1" data-name="Layer 1" xmlns="http://www.w3.org/2000/svg" viewBox="0 0 163 32"><title>Artboard 1</title><path d="M0,32H36L18,1Zm3.9-2.25L18,5.43,32,29.72Z"/><path d="M42.56,31l18-31H24.58Zm0-4.49L28.49,2.22H56.63Z"/><path d="M63.66,29.33,69,15.55h2l5.64,13.78H74.49l-1.61-4.2H67.11l-1.51,4.2Zm4-5.66h4.67l-1.44-3.82c-.43-1.16-.76-2.11-1-2.85a18.17,18.17,0,0,1-.75,2.63Z"/><path d="M77,17.17V15.55H87.92v1.62H83.35V29.33H81.53V17.17Z"/><path d="M89.23,22.61a7.5,7.5,0,0,1,1.85-5.37,6.26,6.26,0,0,1,4.75-1.94,6.71,6.71,0,0,1,3.45.91,5.93,5.93,0,0,1,2.33,2.55,8.17,8.17,0,0,1,.81,3.69,8.2,8.2,0,0,1-.85,3.76,5.77,5.77,0,0,1-2.4,2.51,6.92,6.92,0,0,1-3.35.85,6.53,6.53,0,0,1-3.48-.94A6.13,6.13,0,0,1,90,26.06,7.89,7.89,0,0,1,89.23,22.61Zm1.88,0a5.52,5.52,0,0,0,1.34,3.93,4.68,4.68,0,0,0,6.76,0,5.91,5.91,0,0,0,1.33-4.12A7.07,7.07,0,0,0,100,19.5a4.45,4.45,0,0,0-4.13-2.64,4.65,4.65,0,0,0-3.33,1.34C91.58,19.08,91.11,20.57,91.11,22.64Z"/><path d="M104.71,29.33V15.55h2.73l3.27,9.76c.3.91.52,1.59.65,2,.16-.5.41-1.24.74-2.21l3.3-9.59h2.44V29.33H116.1V17.79l-4,11.54h-1.65l-4-11.73V29.33Z"/><path d="M119.56,15.55h1.88l2.1,9c.22,1,.42,1.89.58,2.83.35-1.48.56-2.33.62-2.55l2.62-9.31h2.2l2,7a34.6,34.6,0,0,1,1.07,4.88q.27-1.32.69-3l2.16-8.86h1.83l-3.77,13.78h-1.77l-2.92-10.49c-.25-.88-.39-1.42-.43-1.62-.14.63-.28,1.17-.4,1.61l-2.91,10.5h-1.85Z"/><path d="M139,29.33V15.55h10v1.62h-8.15v4.22h7.63V23h-7.63v4.7h8.47v1.62Z"/><path d="M151.76,29.33V15.55h5.17a6.35,6.35,0,0,1,2.53.42,3.23,3.23,0,0,1,1.5,1.28,3.5,3.5,0,0,1,.54,1.82,3.14,3.14,0,0,1-.48,1.67A3.44,3.44,0,0,1,159.58,22a3.52,3.52,0,0,1,1.91,1.25,3.33,3.33,0,0,1,.67,2.09,4,4,0,0,1-.41,1.8,3.39,3.39,0,0,1-1,1.28,4.15,4.15,0,0,1-1.5.68,8.94,8.94,0,0,1-2.23.23Zm1.83-8h3a6.49,6.49,0,0,0,1.74-.16,1.81,1.81,0,0,0,1.4-1.89,2.22,2.22,0,0,0-.33-1.21,1.65,1.65,0,0,0-.94-.71,7.76,7.76,0,0,0-2.1-.2h-2.75Zm0,6.37H157a8.25,8.25,0,0,0,1.24-.07,2.77,2.77,0,0,0,1.05-.38,1.91,1.91,0,0,0,.7-.76,2.42,2.42,0,0,0,.27-1.16,2.3,2.3,0,0,0-.39-1.34,2.09,2.09,0,0,0-1.1-.8,6.61,6.61,0,0,0-2-.23h-3.18Z"/></svg>