<svg id="Layer_1" data-name="Layer 1" xmlns="http://www.w3.org/2000/svg" viewBox="0 0 162 32"><defs><style>.cls-1{fill:#fff;}</style></defs><title>Artboard 1</title><path class="cls-1" d="M0,32H36L18,1Zm3.9-2.25L18,5.47,32,29.76Z"/><path class="cls-1" d="M42.56,31l18-31H24.58Zm0-4.49L28.49,2.26H56.63Z"/><path class="cls-1" d="M63.66,29.37,69,15.59h2l5.64,13.78H74.49l-1.61-4.2H67.11l-1.51,4.2Zm4-5.66h4.67l-1.44-3.82c-.43-1.16-.76-2.11-1-2.86a17.94,17.94,0,0,1-.75,2.64Z"/><path class="cls-1" d="M77,17.21V15.59H87.92v1.62H83.35V29.37H81.53V17.21Z"/><path class="cls-1" d="M89.23,22.65a7.5,7.5,0,0,1,1.85-5.37,6.26,6.26,0,0,1,4.75-1.94,6.61,6.61,0,0,1,3.45.91,5.93,5.93,0,0,1,2.33,2.55,8.14,8.14,0,0,1,.81,3.69,8.22,8.22,0,0,1-.85,3.76,5.77,5.77,0,0,1-2.4,2.51,6.92,6.92,0,0,1-3.35.85,6.62,6.62,0,0,1-3.48-.94A6.13,6.13,0,0,1,90,26.1,7.92,7.92,0,0,1,89.23,22.65Zm1.88,0a5.56,5.56,0,0,0,1.34,3.93,4.68,4.68,0,0,0,6.76,0,5.91,5.91,0,0,0,1.33-4.12,7.07,7.07,0,0,0-.57-2.94,4.43,4.43,0,0,0-1.67-1.95,4.52,4.52,0,0,0-2.46-.69,4.69,4.69,0,0,0-3.33,1.33C91.58,19.12,91.11,20.6,91.11,22.68Z"/><path class="cls-1" d="M104.71,29.37V15.59h2.73l3.27,9.76c.3.91.52,1.59.65,2,.16-.5.41-1.24.74-2.21l3.3-9.59h2.44V29.37H116.1V17.83l-4,11.54h-1.65l-4-11.73V29.37Z"/><path class="cls-1" d="M119.56,15.59h1.88l2.1,9c.22.95.42,1.89.58,2.82.35-1.47.56-2.32.62-2.54l2.62-9.31h2.2l2,7a34.9,34.9,0,0,1,1.07,4.88q.27-1.31.69-3l2.16-8.85h1.83l-3.77,13.78h-1.77l-2.92-10.49c-.25-.88-.39-1.42-.43-1.62-.14.63-.28,1.17-.4,1.61l-2.91,10.5h-1.85Z"/><path class="cls-1" d="M139,29.37V15.59h10v1.62h-8.15v4.22h7.63v1.62h-7.63v4.7h8.47v1.62Z"/><path class="cls-1" d="M151.76,29.37V15.59h5.17a6.36,6.36,0,0,1,2.53.41,3.31,3.31,0,0,1,1.5,1.29,3.5,3.5,0,0,1,.54,1.82,3.14,3.14,0,0,1-.48,1.67A3.44,3.44,0,0,1,159.58,22a3.52,3.52,0,0,1,1.91,1.25,3.33,3.33,0,0,1,.67,2.09,4,4,0,0,1-.41,1.8,3.39,3.39,0,0,1-1,1.28,4.15,4.15,0,0,1-1.5.68,8.94,8.94,0,0,1-2.23.23Zm1.83-8h3a6.49,6.49,0,0,0,1.74-.16,1.81,1.81,0,0,0,1.4-1.89,2.22,2.22,0,0,0-.33-1.21,1.61,1.61,0,0,0-.94-.71,7.76,7.76,0,0,0-2.1-.2h-2.75Zm0,6.37H157a8.25,8.25,0,0,0,1.24-.07,3,3,0,0,0,1.05-.38,1.91,1.91,0,0,0,.7-.76,2.45,2.45,0,0,0,.27-1.16,2.3,2.3,0,0,0-.39-1.34,2.09,2.09,0,0,0-1.1-.8,6.61,6.61,0,0,0-2-.23h-3.18Z"/></svg>