<svg id="Layer_1" data-name="Layer 1" xmlns="http://www.w3.org/2000/svg" viewBox="0 0 45 45"><defs><style>.cls-1{fill:#fff;}</style></defs><title>Artboard 1</title><path class="cls-1" d="M22,9.67l5.84-5.85a10.27,10.27,0,0,1,6.28-3A9.86,9.86,0,0,1,42.91,4.9a9.7,9.7,0,0,1,1.72,4.29,9.9,9.9,0,0,1-2.79,8.41L32,27.47a9.83,9.83,0,0,1-13.94,0,5.57,5.57,0,0,1-.75-.86,1.49,1.49,0,0,1,.16-2h0a1.58,1.58,0,0,1,2.31.1,4.78,4.78,0,0,0,.53.59,6.65,6.65,0,0,0,4.77,2,6.75,6.75,0,0,0,4.78-2l9.76-9.76a7.13,7.13,0,0,0,2.09-4.29A6.8,6.8,0,0,0,38,4.63a7.55,7.55,0,0,0-1-.43A6.82,6.82,0,0,0,30.2,5.86l-4.45,4.45L24.2,11.87a1.59,1.59,0,0,1-2.2,0h0A1.59,1.59,0,0,1,22,9.67Zm1.12,26.54a1.59,1.59,0,0,0,0-2.2h0a1.59,1.59,0,0,0-2.2,0L15,39.91a6.73,6.73,0,0,1-6.81,1.66,6,6,0,0,1-1-.37A6.76,6.76,0,0,1,5.54,30.42l9.92-9.92a6.74,6.74,0,0,1,9.54,0c.21.21.43.48.64.7a1.54,1.54,0,0,0,2.31.21l.05-.05a1.54,1.54,0,0,0,.16-2,8.44,8.44,0,0,0-.91-1.07,9.68,9.68,0,0,0-7.56-2.84,10.22,10.22,0,0,0-6.49,3L3.34,28.22a9.87,9.87,0,0,0,0,13.89,9.83,9.83,0,0,0,13.94,0Z"/></svg>